<svg height="512pt" viewBox="-76 0 512 512" width="512pt" xmlns="http://www.w3.org/2000/svg"><path d="m139.074219 103.019531h82.414062v163.929688h-82.414062zm0 0" fill="#57565c"/><path d="m139.074219 103.019531h41.207031v163.929688h-41.207031zm0 0" fill="#3e3d42"/><path d="m257.546875 206.035156h-154.527344c-56.898437 0-103.019531-46.121094-103.019531-103.015625 0-56.898437 46.121094-103.019531 103.019531-103.019531h154.527344c56.894531 0 103.015625 46.121094 103.015625 103.019531 0 56.894531-46.121094 103.015625-103.015625 103.015625zm0 0" fill="#a7adf0"/><path d="m41.207031 103.019531c0-56.898437 46.121094-103.019531 103.019531-103.019531h-41.207031c-56.898437 0-103.019531 46.121094-103.019531 103.019531 0 56.894531 46.121094 103.015625 103.019531 103.015625h41.207031c-56.898437 0-103.019531-46.121094-103.019531-103.015625zm0 0" fill="#7f8adb"/><path d="m41.207031 103.019531c0-34.136719 27.675781-61.8125 61.8125-61.8125h154.527344c34.136719 0 61.808594 27.675781 61.808594 61.8125s-27.671875 61.808594-61.808594 61.808594h-154.527344c-34.136719 0-61.8125-27.671875-61.8125-61.808594zm0 0" fill="#fefefe"/><path d="m82.414062 103.019531c0-34.136719 27.675782-61.8125 61.8125-61.8125h-41.207031c-34.136719 0-61.8125 27.675781-61.8125 61.8125s27.675781 61.808594 61.8125 61.808594h41.207031c-34.136718 0-61.8125-27.671875-61.8125-61.808594zm0 0" fill="#d1e7f8"/><path d="m306.480469 472.265625h-252.398438c-6.601562 0-11.496093-6.121094-10.050781-12.5625l43.988281-195.660156c1.058594-4.703125 5.234375-8.042969 10.050781-8.042969h164.421876c4.820312 0 8.992187 3.339844 10.050781 8.042969l43.988281 195.660156c1.449219 6.441406-3.449219 12.5625-10.050781 12.5625zm0 0" fill="#a7adf0"/><path d="m103.167969 384.683594 27.125-120.640625c1.054687-4.703125 5.230469-8.042969 10.050781-8.042969h-42.273438c-4.816406 0-8.992187 3.339844-10.050781 8.042969l-43.988281 195.660156c-1.445312 6.441406 3.449219 12.5625 10.050781 12.5625h119.164063c-46.023438 0-80.171875-42.679687-70.078125-87.582031zm0 0" fill="#7f8adb"/><path d="m72.113281 512h-61.8125c-5.6875 0-10.300781-4.613281-10.300781-10.300781v-127.265625c0-5.691406 4.613281-10.300782 10.300781-10.300782h61.8125c5.691407 0 10.300781 4.609376 10.300781 10.300782v127.265625c0 5.6875-4.609374 10.300781-10.300781 10.300781zm0 0" fill="#57565c"/><path d="m41.207031 501.699219v-127.265625c0-5.691406 4.613281-10.300782 10.304688-10.300782h-41.210938c-5.6875 0-10.300781 4.609376-10.300781 10.300782v127.265625c0 5.6875 4.613281 10.300781 10.300781 10.300781h41.207031c-5.6875 0-10.300781-4.613281-10.300781-10.300781zm0 0" fill="#3e3d42"/><path d="m350.261719 512h-61.8125c-5.6875 0-10.300781-4.613281-10.300781-10.300781v-127.265625c0-5.691406 4.613281-10.300782 10.300781-10.300782h61.8125c5.691406 0 10.300781 4.609376 10.300781 10.300782v127.265625c0 5.6875-4.613281 10.300781-10.300781 10.300781zm0 0" fill="#57565c"/><path d="m319.355469 501.699219v-127.265625c0-5.691406 4.613281-10.300782 10.300781-10.300782h-41.207031c-5.6875 0-10.300781 4.609376-10.300781 10.300782v127.265625c0 5.6875 4.613281 10.300781 10.300781 10.300781h41.207031c-5.6875 0-10.300781-4.613281-10.300781-10.300781zm0 0" fill="#3e3d42"/><path d="m249.984375 351.570312-10.414063-46.320312c-1.054687-4.703125-5.230468-8.042969-10.050781-8.042969h-98.476562c-4.816407 0-8.992188 3.34375-10.050781 8.042969l-10.414063 46.320312c-1.445313 6.441407 3.449219 12.5625 10.050781 12.5625h119.308594c6.597656 0 11.496094-6.121093 10.046875-12.5625zm0 0" fill="#fefefe"/><path d="m151.785156 351.570312 10.414063-46.320312c1.058593-4.699219 5.234375-8.042969 10.050781-8.042969h-41.207031c-4.816407 0-8.992188 3.34375-10.050781 8.042969l-10.414063 46.320312c-1.445313 6.441407 3.449219 12.5625 10.050781 12.5625h41.207032c-6.601563 0-11.496094-6.121093-10.050782-12.5625zm0 0" fill="#d1e7f8"/><g fill="#1d1d1f"><path d="m180.28125 131.449219c-9.78125 0-18.886719-5.273438-23.765625-13.761719-2.0625-3.589844-.828125-8.175781 2.765625-10.238281 3.589844-2.0625 8.175781-.828125 10.238281 2.765625 2.210938 3.84375 6.335938 6.230468 10.761719 6.230468 4.429688 0 8.550781-2.386718 10.761719-6.230468 2.066406-3.59375 6.648437-4.828125 10.242187-2.765625 3.589844 2.0625 4.828125 6.648437 2.761719 10.238281-4.875 8.488281-13.984375 13.761719-23.765625 13.761719zm0 0"/><path d="m245.894531 101.285156c-4.140625 0-7.5-3.355468-7.5-7.5v-11.695312c0-4.144532 3.359375-7.5 7.5-7.5s7.5 3.355468 7.5 7.5v11.695312c0 4.144532-3.359375 7.5-7.5 7.5zm0 0"/><path d="m114.671875 101.285156c-4.144531 0-7.5-3.355468-7.5-7.5v-11.695312c0-4.144532 3.355469-7.5 7.5-7.5 4.140625 0 7.5 3.355468 7.5 7.5v11.695312c0 4.144532-3.359375 7.5-7.5 7.5zm0 0"/></g><path d="m251.742188 123.398438h-11.695313c-4.144531 0-7.5-3.355469-7.5-7.5 0-4.140626 3.355469-7.5 7.5-7.5h11.695313c4.144531 0 7.5 3.359374 7.5 7.5 0 4.144531-3.355469 7.5-7.5 7.5zm0 0" fill="#f55"/><path d="m120.519531 123.398438h-11.699219c-4.140624 0-7.5-3.355469-7.5-7.5 0-4.140626 3.359376-7.5 7.5-7.5h11.699219c4.140625 0 7.5 3.359374 7.5 7.5 0 4.144531-3.359375 7.5-7.5 7.5zm0 0" fill="#f55"/></svg>