<svg height="512pt" viewBox="-42 0 512 512" width="512pt" xmlns="http://www.w3.org/2000/svg"><path d="m366.964844 276.109375h59.25c.738281 3.742187 1.117187 7.609375 1.117187 11.558594v28.964843h-60.367187l-12.105469-20.261718zm0 0" fill="#ffe675"/><path d="m397.148438 336.367188 30.183593 19.738281v18.363281c0 16.671875-13.511719 30.183594-30.183593 30.183594-16.667969 0-30.179688-13.515625-30.179688-30.183594v-18.363281zm0 0" fill="#ffe675"/><path d="m140.828125 412.859375-30.75 12.652344v52.980469h61.496094v-52.980469zm0 0" fill="#ff6881"/><path d="m286.503906 412.859375 30.75 12.652344v52.980469h-61.496094v-52.980469zm0 0" fill="#ff6881"/><path d="m171.574219 380.035156v45.476563h-61.496094v-45.476563l30.75-15.722656zm0 0" fill="#ffe675"/><path d="m140.824219 462.085938c-21.183594 0-38.355469 17.175781-38.355469 38.359374 0 6.382813 5.171875 11.554688 11.554688 11.554688h53.605468c6.382813 0 11.554688-5.171875 11.554688-11.554688 0-21.183593-17.175782-38.359374-38.359375-38.359374zm0 0" fill="#91daff"/><path d="m255.757812 380.035156v45.476563h61.496094v-45.476563l-30.75-15.722656zm0 0" fill="#ffe675"/><path d="m286.507812 462.085938c21.1875 0 38.359376 17.175781 38.359376 38.359374 0 6.382813-5.175782 11.554688-11.554688 11.554688h-53.605469c-6.382812 0-11.558593-5.171875-11.558593-11.554688 0-21.183593 17.175781-38.359374 38.359374-38.359374zm0 0" fill="#91daff"/><path d="m366.964844 227.289062c29.382812 0 53.863281 21.003907 59.25 48.820313h-59.25l-15.523438-24.410156zm0 0" fill="#ff6881"/><path d="m366.964844 316.632812h60.367187v39.472657h-60.367187l-18.257813-19.738281zm0 0" fill="#ff6881"/><path d="m60.367188 276.109375h-59.25c-.738282 3.742187-1.117188 7.609375-1.117188 11.558594v28.964843h60.367188l12.105468-20.261718zm0 0" fill="#ffe675"/><path d="m30.183594 336.367188-30.183594 19.738281v18.363281c0 16.671875 13.515625 30.183594 30.183594 30.183594 16.671875 0 30.183594-13.515625 30.183594-30.183594v-18.363281zm0 0" fill="#ffe675"/><g fill="#ff6881"><path d="m60.367188 227.289062c-29.382813 0-53.863282 21.003907-59.25 48.820313h59.25l15.527343-24.410156zm0 0"/><path d="m60.367188 316.632812h-60.367188v39.472657h60.367188l18.261718-19.738281zm0 0"/><path d="m61.433594 70.988281c-8.628906 0-15.625 6.992188-15.625 15.625v53.53125c0 8.628907 6.996094 15.625 15.625 15.625h32.238281v-84.78125zm0 0"/><path d="m365.902344 70.988281c8.628906 0 15.625 6.992188 15.625 15.625v53.53125c0 8.628907-6.996094 15.625-15.625 15.625h-32.238282v-84.78125zm0 0"/></g><path d="m319.453125 0h-211.574219c-13.511718 0-24.464844 10.953125-24.464844 24.464844v200.363281h260.507813v-200.363281c-.003906-13.511719-10.957031-24.464844-24.46875-24.464844zm0 0" fill="#ffe675"/><path d="m138.785156 0h-30.90625c-13.511718 0-24.464844 10.953125-24.464844 24.464844v200.363281h30.90625v-200.363281c0-13.511719 10.953126-24.464844 24.464844-24.464844zm0 0" fill="#ffb258"/><path d="m143.414062 110.0625c-4.269531 0-7.726562-3.460938-7.726562-7.726562v-16.816407c0-4.269531 3.457031-7.726562 7.726562-7.726562 4.265626 0 7.726563 3.457031 7.726563 7.726562v16.816407c0 4.265624-3.460937 7.726562-7.726563 7.726562zm0 0" fill="#3a3c4c"/><path d="m283.921875 110.0625c-4.269531 0-7.726563-3.460938-7.726563-7.726562v-16.816407c0-4.269531 3.457032-7.726562 7.726563-7.726562 4.265625 0 7.726563 3.457031 7.726563 7.726562v16.816407c0 4.265624-3.460938 7.726562-7.726563 7.726562zm0 0" fill="#3a3c4c"/><path d="m185.625 114.402344h-9.824219c-10.101562 0-18.285156 8.191406-18.285156 18.296875 0 5.054687 2.039063 9.617187 5.351563 12.929687 3.3125 3.304688 7.886718 5.355469 12.933593 5.355469h9.824219l15.90625-18.292969zm0 0" fill="#91daff"/><path d="m241.707031 114.402344h-28.039062l-12.136719 18.289062 12.136719 18.292969h28.039062l14.054688-18.292969zm0 0" fill="#91daff"/><path d="m269.820312 132.699219c0 10.101562-8.1875 18.285156-18.289062 18.285156h-9.824219v-36.582031h9.824219c5.046875 0 9.621094 2.050781 12.933594 5.363281 3.3125 3.300781 5.355468 7.875 5.355468 12.933594zm0 0" fill="#ececee"/><path d="m185.625 114.402344h28.042969v36.582031h-28.042969zm0 0" fill="#ececee"/><path d="m255.757812 380.035156v25.757813h61.496094v-25.757813l-30.75-15.722656zm0 0" fill="#ffb258"/><path d="m110.078125 380.035156v25.757813h61.496094v-25.757813l-30.746094-15.722656zm0 0" fill="#ffb258"/><path d="m343.988281 204.316406h-260.640625c-12.691406 0-22.976562 10.285156-22.976562 22.976563v129.769531c0 12.6875 10.285156 22.976562 22.976562 22.976562h260.640625c12.6875 0 22.976563-10.289062 22.976563-22.976562v-129.769531c0-12.691407-10.289063-22.976563-22.976563-22.976563zm0 0" fill="#91daff"/><path d="m91.273438 357.0625v-129.769531c0-12.691407 10.289062-22.976563 22.976562-22.976563h-30.902344c-12.691406 0-22.976562 10.285156-22.976562 22.976563v129.769531c0 12.6875 10.285156 22.972656 22.976562 22.972656h30.902344c-12.6875.003906-22.976562-10.285156-22.976562-22.972656zm0 0" fill="#73bbdf"/><path d="m250.433594 292.175781c0 13.503907-10.949219 24.453125-24.453125 24.453125-13.503907 0-24.449219-10.949218-24.449219-24.453125 0-13.503906 10.945312-24.449219 24.449219-24.449219 13.503906 0 24.453125 10.945313 24.453125 24.449219zm0 0" fill="#fdfd94"/><path d="m329.773438 292.175781c0 13.503907-10.949219 24.453125-24.453126 24.453125-13.5 0-24.449218-10.949218-24.449218-24.453125 0-13.503906 10.949218-24.449219 24.449218-24.449219 13.503907 0 24.453126 10.945313 24.453126 24.449219zm0 0" fill="#fdfd94"/><path d="m158.453125 267.726562h-49.878906c-6.082031 0-11.011719 4.929688-11.011719 11.011719v26.878907c0 6.082031 4.929688 11.011718 11.011719 11.011718h49.878906c6.082031 0 11.011719-4.929687 11.011719-11.011718v-26.878907c0-6.082031-4.929688-11.011719-11.011719-11.011719zm0 0" fill="#ececee"/></svg>